<svg width="900" height="675" viewBox="0 0 900 675" fill="none" xmlns="http://www.w3.org/2000/svg">
  <rect width="900" height="675" fill="#F5F3FF"/>
  <rect x="76" y="78" width="748" height="519" rx="36" fill="#FAFAFF"/>
  <path d="M168 484C258 411 343 389 424 418C532 457 610 447 733 331" stroke="#DDD6FE" stroke-width="48" stroke-linecap="round"/>
  <rect x="327" y="501" width="248" height="38" rx="19" fill="#2F2937"/>
  <path d="M450 499V355" stroke="#2F2937" stroke-width="26" stroke-linecap="round"/>
  <path d="M450 358L552 250" stroke="#7C3AED" stroke-width="26" stroke-linecap="round"/>
  <path d="M552 250L476 190" stroke="#7C3AED" stroke-width="26" stroke-linecap="round"/>
  <path d="M444 169C510 119 607 144 648 213L509 291C487 247 467 205 444 169Z" fill="#F59E0B"/>
  <path d="M537 277L649 213" stroke="#92400E" stroke-width="12" stroke-linecap="round"/>
  <circle cx="452" cy="355" r="23" fill="#F59E0B"/>
  <circle cx="203" cy="209" r="32" fill="#0EA5E9" opacity=".82"/>
  <circle cx="683" cy="494" r="28" fill="#E11D48" opacity=".78"/>
</svg>
