<svg width="900" height="675" viewBox="0 0 900 675" fill="none" xmlns="http://www.w3.org/2000/svg">
  <rect width="900" height="675" fill="#EAF4F1"/>
  <rect x="70" y="70" width="760" height="535" rx="36" fill="#F8FBFA"/>
  <path d="M185 512C265 447 344 414 422 413C531 411 610 472 715 392" stroke="#CFE3DE" stroke-width="46" stroke-linecap="round"/>
  <rect x="388" y="78" width="124" height="192" rx="44" fill="#242A2E"/>
  <rect x="388" y="405" width="124" height="192" rx="44" fill="#242A2E"/>
  <circle cx="450" cy="338" r="154" fill="#11181C"/>
  <circle cx="450" cy="338" r="130" fill="#0F766E"/>
  <circle cx="450" cy="338" r="106" fill="#DDEDEA"/>
  <circle cx="450" cy="338" r="84" fill="#173B38"/>
  <path d="M450 286V338L502 368" stroke="#F9FAFB" stroke-width="12" stroke-linecap="round"/>
  <path d="M413 396H487" stroke="#99F6E4" stroke-width="8" stroke-linecap="round"/>
  <circle cx="450" cy="338" r="10" fill="#F9FAFB"/>
  <rect x="607" y="313" width="30" height="50" rx="10" fill="#242A2E"/>
  <circle cx="217" cy="183" r="30" fill="#F59E0B" opacity=".9"/>
  <circle cx="685" cy="516" r="42" fill="#F43F5E" opacity=".82"/>
</svg>
